<mxfile host="app.diagrams.net" modified="2020-07-05T14:55:10.034Z" agent="5.0 (Windows NT 10.0; Win64; x64) AppleWebKit/537.36 (KHTML, like Gecko) Chrome/83.0.4103.116 Safari/537.36" etag="Me4kPXrrLSwvrIiLmDAo" version="13.3.9" type="github">
  <diagram id="zS-yiBfGx27JyY9To8Db" name="Page-1">
    <mxGraphModel dx="813" dy="435" grid="0" gridSize="10" guides="1" tooltips="1" connect="1" arrows="1" fold="1" page="1" pageScale="1" pageWidth="1169" pageHeight="827" math="0" shadow="0">
      <root>
        <mxCell id="0" />
        <mxCell id="1" parent="0" />
        <mxCell id="5ikRLUZCvN7Isw8UJ5cB-1" value="" style="endArrow=classic;html=1;strokeWidth=2;" edge="1" parent="1">
          <mxGeometry width="50" height="50" relative="1" as="geometry">
            <mxPoint x="560" y="440.0000000000001" as="sourcePoint" />
            <mxPoint x="560" y="240" as="targetPoint" />
          </mxGeometry>
        </mxCell>
        <mxCell id="5ikRLUZCvN7Isw8UJ5cB-2" value="" style="endArrow=classic;html=1;strokeWidth=2;" edge="1" parent="1">
          <mxGeometry width="50" height="50" relative="1" as="geometry">
            <mxPoint x="480" y="440.0000000000001" as="sourcePoint" />
            <mxPoint x="760" y="440.0000000000001" as="targetPoint" />
          </mxGeometry>
        </mxCell>
        <mxCell id="5ikRLUZCvN7Isw8UJ5cB-3" value="&lt;font style=&quot;font-size: 15px&quot;&gt;t&lt;/font&gt;" style="text;html=1;align=center;verticalAlign=middle;resizable=0;points=[];autosize=1;" vertex="1" parent="1">
          <mxGeometry x="760" y="430" width="20" height="20" as="geometry" />
        </mxCell>
        <mxCell id="5ikRLUZCvN7Isw8UJ5cB-4" value="&lt;font style=&quot;font-size: 15px&quot;&gt;0&lt;/font&gt;" style="text;html=1;align=center;verticalAlign=middle;resizable=0;points=[];autosize=1;" vertex="1" parent="1">
          <mxGeometry x="540" y="440" width="20" height="20" as="geometry" />
        </mxCell>
        <mxCell id="5ikRLUZCvN7Isw8UJ5cB-5" value="&lt;font style=&quot;font-size: 15px&quot;&gt;u&lt;sub&gt;a&lt;/sub&gt; (t)&lt;/font&gt;" style="text;html=1;align=center;verticalAlign=middle;resizable=0;points=[];autosize=1;" vertex="1" parent="1">
          <mxGeometry x="535" y="218" width="50" height="20" as="geometry" />
        </mxCell>
        <mxCell id="5ikRLUZCvN7Isw8UJ5cB-8" value="" style="endArrow=none;html=1;strokeWidth=3;fillColor=#e51400;strokeColor=#B20000;" edge="1" parent="1">
          <mxGeometry width="50" height="50" relative="1" as="geometry">
            <mxPoint x="520" y="440" as="sourcePoint" />
            <mxPoint x="560" y="440" as="targetPoint" />
          </mxGeometry>
        </mxCell>
        <mxCell id="5ikRLUZCvN7Isw8UJ5cB-10" value="" style="endArrow=none;html=1;curved=1;strokeWidth=3;fillColor=#e51400;strokeColor=#B20000;comic=0;noJump=0;orthogonalLoop=0;" edge="1" parent="1">
          <mxGeometry width="50" height="50" relative="1" as="geometry">
            <mxPoint x="560" y="440" as="sourcePoint" />
            <mxPoint x="675" y="300" as="targetPoint" />
            <Array as="points">
              <mxPoint x="590" y="430" />
              <mxPoint x="620" y="410" />
              <mxPoint x="650" y="380" />
              <mxPoint x="670" y="340" />
            </Array>
          </mxGeometry>
        </mxCell>
      </root>
    </mxGraphModel>
  </diagram>
</mxfile>
